# File created by Blade
# Date/Time:  Thu Jan 22 16:10:14 2015
# Frame Rate: 120.000 fps
#------------------------------------------------------
:FULLY-SPECIFIED
:DEGREES
615
root -1.068636 33.900122 -1.711440 28.867021 29.578726 -18.030516
RightUpLeg -27.710665 -23.058920 9.862620
RightLeg -7.335646 -0.000000 0.000000
RightFoot -7.304557 -34.399962 34.083720
RightToeBase 13.853569 -0.000000 -0.000000
LeftUpLeg -55.162423 15.405311 38.294910
LeftLeg 11.092610 -0.000000 -0.000000
LeftFoot 6.607584 5.676992 -36.096714
LeftToeBase 9.733667 -0.000000 -0.000000
Spine 48.888334 -3.798280 -51.098849
RightShoulder -4.611577 -5.632840 -39.913787
RightArm -14.344791 24.498679 15.245492
RightForeArm 19.601609 -0.000000 18.522062
RightHand 8.663610 -0.000000 -33.886749
RightHandThumb1 -24.326973 -0.000000 -32.862282
LeftShoulder -2.094698 20.829353 30.690163
LeftArm 49.117390 -55.328586 -44.653741
LeftForeArm 27.640232 -0.000000 5.482661
LeftHand -17.482029 -0.000000 -6.509663
LeftHandThumb1 -26.253704 0.000000 33.147579
Head -20.350744 0.110859 -32.610764
616
root -1.051461 33.900650 -1.706118 29.032031 29.681917 -17.930626
RightUpLeg -27.837160 -23.193669 9.876516
RightLeg -7.328394 -0.000000 0.000000
RightFoot -7.269679 -34.406420 34.036412
RightToeBase 13.793533 -0.000000 -0.000000
LeftUpLeg -55.378744 15.374933 38.177583
LeftLeg 11.149695 -0.000000 -0.000000
LeftFoot 6.585389 5.700114 -36.067604
LeftToeBase 9.897898 -0.000000 -0.000000
Spine 48.944804 -3.658745 -51.065002
RightShoulder -4.585116 -5.626608 -39.956067
RightArm -14.226700 24.514491 15.157937
RightForeArm 19.530301 -0.000000 18.593859
RightHand 8.778314 0.000000 -34.068945
RightHandThumb1 -24.326973 -0.000000 -32.862282
LeftShoulder -1.969759 20.736482 30.783102
LeftArm 49.443226 -55.311586 -44.803882
LeftForeArm 27.784816 -0.000000 5.571094
LeftHand -17.538726 -0.000000 -6.383960
LeftHandThumb1 -26.253704 0.000000 33.147579
Head -19.993370 -0.390634 -32.502543
617
root -1.036167 33.901776 -1.699384 29.196443 29.783084 -17.840250
RightUpLeg -27.956893 -23.322156 9.905577
RightLeg -7.343337 -0.000000 0.000000
RightFoot -7.266208 -34.415465 34.034423
RightToeBase 13.810437 -0.000000 -0.000000
LeftUpLeg -55.587507 15.372850 38.043350
LeftLeg 11.186794 -0.000000 -0.000000
LeftFoot 6.603674 5.694453 -36.077681
LeftToeBase 9.952275 -0.000000 -0.000000
Spine 48.993233 -3.538039 -51.037916
RightShoulder -4.531143 -5.547222 -40.041774
RightArm -14.134254 24.478494 15.121602
RightForeArm 19.546595 0.000000 18.689747
RightHand 8.863183 -0.000000 -34.303639
RightHandThumb1 -24.326973 -0.000000 -32.862282
LeftShoulder -1.923238 20.696228 30.809508
LeftArm 49.857613 -55.270358 -44.937376
LeftForeArm 27.952230 -0.000000 5.604478
LeftHand -17.542780 -0.000000 -6.474891
LeftHandThumb1 -26.253704 0.000000 33.147579
Head -19.643673 -0.898141 -32.392466
618
root -1.024491 33.902370 -1.693371 29.358996 29.901407 -17.771709
RightUpLeg -28.097560 -23.472192 9.982081
RightLeg -7.354272 -0.000000 0.000000
RightFoot -7.198121 -34.411222 33.951126
RightToeBase 13.744725 -0.000000 -0.000000
LeftUpLeg -55.807198 15.346212 37.968759
LeftLeg 11.230704 -0.000000 -0.000000
LeftFoot 6.604046 5.739354 -36.130520
LeftToeBase 9.946676 -0.000000 -0.000000
Spine 49.030178 -3.415278 -50.945711
RightShoulder -4.502038 -5.436293 -40.155283
RightArm -14.052641 24.468897 15.096746
RightForeArm 19.352659 0.000000 18.772002
RightHand 8.829375 0.000000 -34.426519
RightHandThumb1 -24.326973 -0.000000 -32.862282
LeftShoulder -1.803250 20.632757 30.865323
LeftArm 50.110683 -55.215137 -44.978604
LeftForeArm 27.904670 -0.000000 5.731674
LeftHand -17.519522 -0.000000 -6.323714
LeftHandThumb1 -26.253704 0.000000 33.147579
Head -19.255191 -1.459310 -32.287519
619
root -1.010727 33.903070 -1.687194 29.519684 29.995372 -17.686526
RightUpLeg -28.222289 -23.605840 10.026121
RightLeg -7.369187 -0.000000 0.000000
RightFoot -7.163971 -34.419010 33.887233
RightToeBase 13.718962 -0.000000 -0.000000
LeftUpLeg -55.996773 15.349250 37.852031
LeftLeg 11.250755 -0.000000 -0.000000
LeftFoot 6.628102 5.719298 -36.215268
LeftToeBase 9.992852 -0.000000 -0.000000
Spine 49.054196 -3.284243 -50.901565
RightShoulder -4.450682 -5.404906 -40.222139
RightArm -13.864917 24.354360 15.081647
RightForeArm 19.292101 -0.000000 18.720195
RightHand 8.995748 0.000000 -34.688968
RightHandThumb1 -24.326973 -0.000000 -32.862282
LeftShoulder -1.732383 20.579334 30.917629
LeftArm 50.554029 -55.200613 -45.192067
LeftForeArm 27.983959 -0.000000 5.772797
LeftHand -17.446380 -0.000000 -6.130099
LeftHandThumb1 -26.253704 0.000000 33.147579
Head -18.825090 -2.055856 -32.194427
620
root -0.998676 33.903764 -1.682104 29.689651 30.095886 -17.616219
RightUpLeg -28.366768 -23.731710 10.091120
RightLeg -7.383915 -0.000000 0.000000
RightFoot -7.147164 -34.411539 33.870589
RightToeBase 13.727699 -0.000000 -0.000000
LeftUpLeg -56.209516 15.362262 37.744829
LeftLeg 11.283098 -0.000000 -0.000000
LeftFoot 6.648990 5.705796 -36.285536
LeftToeBase 10.094749 -0.000000 -0.000000
Spine 49.088566 -3.157579 -50.831320
RightShoulder -4.427638 -5.341883 -40.280375
RightArm -13.724831 24.303771 15.054022
RightForeArm 19.258978 -0.000000 18.724763
RightHand 9.093208 -0.000000 -34.829597
RightHandThumb1 -24.326973 -0.000000 -32.862282
LeftShoulder -1.877886 19.951318 30.799349
LeftArm 50.681363 -54.688828 -44.862286
LeftForeArm 27.931697 -0.000000 5.653155
LeftHand -17.377847 -0.000000 -6.037138
LeftHandThumb1 -26.253704 0.000000 33.147579
Head -18.456495 -2.671185 -32.083128
621
root -0.987567 33.904101 -1.675483 29.833042 30.213514 -17.544460
RightUpLeg -28.467771 -23.870251 10.147578
RightLeg -7.419094 -0.000000 0.000000
RightFoot -7.114741 -34.424323 33.826186
RightToeBase 13.748124 -0.000000 -0.000000
LeftUpLeg -56.405457 15.339023 37.653806
LeftLeg 11.309172 -0.000000 -0.000000
LeftFoot 6.672287 5.718192 -36.274417
LeftToeBase 10.002136 -0.000000 -0.000000
Spine 49.138876 -3.068530 -50.776945
RightShoulder -4.329563 -5.199137 -40.402827
RightArm -13.639971 24.214894 15.059137
RightForeArm 19.067856 -0.000000 18.773069
RightHand 8.990670 -0.000000 -34.994444
RightHandThumb1 -24.326973 -0.000000 -32.862282
LeftShoulder -1.826438 19.922041 30.831873
LeftArm 50.979455 -54.650640 -44.945261
LeftForeArm 27.829346 -0.000000 5.730541
LeftHand -17.438368 -0.000000 -6.014815
LeftHandThumb1 -26.253704 0.000000 33.147579
Head -18.039384 -3.110748 -32.069388
